<svg width="23" height="18" viewBox="0 0 23 18" fill="none" xmlns="http://www.w3.org/2000/svg">
<path d="M16.6666 17H21.6666V15C21.6666 13.3431 20.3235 12 18.6666 12C17.711 12 16.8598 12.4468 16.3104 13.1429M16.6666 17H6.66663M16.6666 17V15C16.6666 14.3438 16.5402 13.717 16.3104 13.1429M6.66663 17H1.66663V15C1.66663 13.3431 3.00977 12 4.66663 12C5.62223 12 6.47348 12.4468 7.02287 13.1429M6.66663 17V15C6.66663 14.3438 6.79305 13.717 7.02287 13.1429M7.02287 13.1429C7.76013 11.301 9.56144 10 11.6666 10C13.7718 10 15.5731 11.301 16.3104 13.1429M14.6666 4C14.6666 5.65685 13.3235 7 11.6666 7C10.0098 7 8.66663 5.65685 8.66663 4C8.66663 2.34315 10.0098 1 11.6666 1C13.3235 1 14.6666 2.34315 14.6666 4ZM20.6666 7C20.6666 8.10457 19.7712 9 18.6666 9C17.5621 9 16.6666 8.10457 16.6666 7C16.6666 5.89543 17.5621 5 18.6666 5C19.7712 5 20.6666 5.89543 20.6666 7ZM6.66663 7C6.66663 8.10457 5.7712 9 4.66663 9C3.56206 9 2.66663 8.10457 2.66663 7C2.66663 5.89543 3.56206 5 4.66663 5C5.7712 5 6.66663 5.89543 6.66663 7Z" stroke="#BBBEC6" stroke-width="2" stroke-linecap="round" stroke-linejoin="round"/>
</svg>
