<svg width="19" height="15" viewBox="0 0 19 15" fill="none" xmlns="http://www.w3.org/2000/svg">
<path d="M12.6667 3C12.6667 4.65685 11.3236 6 9.66675 6C8.00989 6 6.66675 4.65685 6.66675 3C6.66675 1.34315 8.00989 0 9.66675 0C11.3236 0 12.6667 1.34315 12.6667 3Z" fill="#F58647"/>
<path d="M17.6667 5C17.6667 6.10457 16.7713 7 15.6667 7C14.5622 7 13.6667 6.10457 13.6667 5C13.6667 3.89543 14.5622 3 15.6667 3C16.7713 3 17.6667 3.89543 17.6667 5Z" fill="#F58647"/>
<path d="M13.6667 12C13.6667 9.79086 11.8759 8 9.66675 8C7.45761 8 5.66675 9.79086 5.66675 12V15H13.6667V12Z" fill="#F58647"/>
<path d="M5.66675 5C5.66675 6.10457 4.77132 7 3.66675 7C2.56218 7 1.66675 6.10457 1.66675 5C1.66675 3.89543 2.56218 3 3.66675 3C4.77132 3 5.66675 3.89543 5.66675 5Z" fill="#F58647"/>
<path d="M15.6667 15V12C15.6667 10.9459 15.3949 9.9552 14.9175 9.09432C15.157 9.03275 15.408 9 15.6667 9C17.3236 9 18.6667 10.3431 18.6667 12V15H15.6667Z" fill="#F58647"/>
<path d="M4.41601 9.09432C3.9386 9.9552 3.66675 10.9459 3.66675 12V15H0.666748V12C0.666748 10.3431 2.00989 9 3.66675 9C3.92546 9 4.17652 9.03275 4.41601 9.09432Z" fill="#F58647"/>
</svg>
