<svg width="28" height="28" viewBox="0 0 28 28" fill="none" xmlns="http://www.w3.org/2000/svg">
<path fill-rule="evenodd" clip-rule="evenodd" d="M23.0241 4.44734V1.99268C23.0233 1.88588 22.9939 1.78125 22.939 1.68966C22.884 1.59806 22.8056 1.52282 22.7118 1.47176C22.618 1.42069 22.5123 1.39565 22.4055 1.39924C22.2988 1.40283 22.195 1.43492 22.1048 1.49218C17.2083 4.55118 15.9483 11.8662 15.6333 14.8283C15.6166 14.9904 15.6342 15.1542 15.6849 15.3091C15.7357 15.4639 15.8184 15.6064 15.9277 15.7272C16.0371 15.848 16.1707 15.9445 16.3197 16.0103C16.4688 16.0761 16.63 16.1099 16.793 16.1093L19.803 16.114L19.4786 25.5243C19.47 25.7625 19.5094 25.9999 19.5946 26.2225C19.6798 26.445 19.8089 26.6481 19.9743 26.8196C20.1397 26.9912 20.338 27.1276 20.5573 27.2208C20.7767 27.314 21.0125 27.362 21.2508 27.362C21.4891 27.362 21.7249 27.314 21.9443 27.2208C22.1636 27.1276 22.3619 26.9912 22.5273 26.8196C22.6927 26.6481 22.8218 26.445 22.907 26.2225C22.9922 25.9999 23.0316 25.7625 23.023 25.5243V4.44734H23.0241ZM13.286 1.18884C12.9765 1.18884 12.6798 1.31176 12.461 1.53055C12.2422 1.74934 12.1193 2.04609 12.1193 2.35551V7.21234C12.1193 7.28468 12.1041 7.35234 12.1018 7.42351H10.024V2.35551C10.024 2.04609 9.90105 1.74934 9.68225 1.53055C9.46346 1.31176 9.16672 1.18884 8.8573 1.18884C8.54788 1.18884 8.25113 1.31176 8.03234 1.53055C7.81355 1.74934 7.69063 2.04609 7.69063 2.35551V7.42351H5.6128C5.61046 7.35234 5.5953 7.28468 5.5953 7.21234V2.35551C5.5953 2.04609 5.47238 1.74934 5.25359 1.53055C5.03479 1.31176 4.73805 1.18884 4.42863 1.18884C4.11921 1.18884 3.82246 1.31176 3.60367 1.53055C3.38488 1.74934 3.26196 2.04609 3.26196 2.35551V7.21234C3.26196 10.2118 5.1018 12.7272 7.5658 13.3922L7.08513 25.5267C7.07906 25.7633 7.12042 25.9987 7.20678 26.2191C7.29314 26.4395 7.42275 26.6404 7.58797 26.8099C7.75318 26.9794 7.95066 27.1141 8.16876 27.2061C8.38686 27.2981 8.62117 27.3455 8.85788 27.3455C9.09459 27.3455 9.3289 27.2981 9.547 27.2061C9.7651 27.1141 9.96258 26.9794 10.1278 26.8099C10.293 26.6404 10.4226 26.4395 10.509 26.2191C10.5953 25.9987 10.6367 25.7633 10.6306 25.5267L10.15 13.3922C12.6128 12.7272 14.4526 10.2118 14.4526 7.21234V2.35551C14.4526 2.04609 14.3297 1.74934 14.1109 1.53055C13.8921 1.31176 13.5954 1.18884 13.286 1.18884Z" fill="#29BB9D"/>
</svg>
