<svg width="29" height="24" viewBox="0 0 29 24" fill="none" xmlns="http://www.w3.org/2000/svg">
<path d="M26.1723 2.12177C25.4957 1.44911 24.6923 0.915505 23.808 0.551444C22.9238 0.187383 21.976 0 21.0189 0C20.0617 0 19.114 0.187383 18.2297 0.551444C17.3455 0.915505 16.5421 1.44911 15.8654 2.12177L14.4612 3.51714L13.0569 2.12177C11.6901 0.763676 9.83635 0.00070395 7.90343 0.000703964C5.97051 0.000703978 4.11676 0.763676 2.74998 2.12177C1.3832 3.47987 0.615356 5.32185 0.615356 7.24249C0.615356 9.16313 1.3832 11.0051 2.74998 12.3632L4.15426 13.7586L14.4612 24L24.768 13.7586L26.1723 12.3632C26.8493 11.6909 27.3863 10.8926 27.7527 10.0139C28.1191 9.13531 28.3077 8.19356 28.3077 7.24249C28.3077 6.29142 28.1191 5.34967 27.7527 4.47104C27.3863 3.59241 26.8493 2.79412 26.1723 2.12177Z" fill="#FF7070"/>
</svg>
