<svg width="80" height="80" viewBox="0 0 80 80" fill="none" xmlns="http://www.w3.org/2000/svg">
<rect width="80" height="80" rx="40" fill="#FFF0E2"/>
<path d="M39.9998 37.4C44.3076 37.4 47.7998 33.9078 47.7998 29.6C47.7998 25.2922 44.3076 21.8 39.9998 21.8C35.692 21.8 32.1998 25.2922 32.1998 29.6C32.1998 33.9078 35.692 37.4 39.9998 37.4Z" fill="#F58647"/>
<path d="M21.7998 60.8C21.7998 50.7484 29.9482 42.6 39.9998 42.6C50.0514 42.6 58.1998 50.7484 58.1998 60.8H21.7998Z" fill="#F58647"/>
<rect x="52.25" y="52.25" width="27.5" height="27.5" rx="13.75" fill="white"/>
<path fill-rule="evenodd" clip-rule="evenodd" d="M60 61C58.8954 61 58 61.8954 58 63V71C58 72.1046 58.8954 73 60 73H72C73.1046 73 74 72.1046 74 71V63C74 61.8954 73.1046 61 72 61H70.4142C70.149 61 69.8946 60.8946 69.7071 60.7071L68.5858 59.5858C68.2107 59.2107 67.702 59 67.1716 59H64.8284C64.298 59 63.7893 59.2107 63.4142 59.5858L62.2929 60.7071C62.1054 60.8946 61.851 61 61.5858 61H60ZM66 70C67.6569 70 69 68.6569 69 67C69 65.3431 67.6569 64 66 64C64.3431 64 63 65.3431 63 67C63 68.6569 64.3431 70 66 70Z" fill="#757883"/>
<rect x="52.25" y="52.25" width="27.5" height="27.5" rx="13.75" stroke="#DADEE4" stroke-width="0.5"/>
</svg>
