<svg width="18" height="18" viewBox="0 0 18 18" fill="none" xmlns="http://www.w3.org/2000/svg">
<path d="M17.2075 15.7924L13.3683 11.9532C14.2725 10.7549 14.815 9.26986 14.815 7.65652C14.815 3.70986 11.6033 0.499023 7.6575 0.499023C3.71083 0.499857 0.5 3.71069 0.5 7.65736C0.5 11.6032 3.71083 14.8149 7.6575 14.8149C9.27 14.8149 10.7558 14.2724 11.9542 13.3682L15.7933 17.2074C15.9883 17.4024 16.2442 17.4999 16.5 17.4999C16.7558 17.4999 17.0117 17.4024 17.2075 17.2065C17.5975 16.8165 17.5975 16.1832 17.2075 15.7924ZM2.5 7.65736C2.5 4.81319 4.81333 2.49986 7.6575 2.49986C10.5008 2.49986 12.8142 4.81319 12.8142 7.65652C12.8142 10.4999 10.5008 12.8132 7.6575 12.8132C4.81333 12.814 2.5 10.5007 2.5 7.65736Z" fill="#BBBEC6"/>
</svg>
