<svg width="18" height="20" viewBox="0 0 18 20" fill="none" xmlns="http://www.w3.org/2000/svg">
<path fill-rule="evenodd" clip-rule="evenodd" d="M7.79998 0.399902C7.34545 0.399902 6.92993 0.656705 6.72666 1.06325L5.85834 2.7999H1.79998C1.13723 2.7999 0.599976 3.33716 0.599976 3.9999C0.599976 4.66264 1.13723 5.1999 1.79998 5.1999L1.79998 17.1999C1.79998 18.5254 2.87449 19.5999 4.19998 19.5999H13.8C15.1255 19.5999 16.2 18.5254 16.2 17.1999V5.1999C16.8627 5.1999 17.4 4.66264 17.4 3.9999C17.4 3.33716 16.8627 2.7999 16.2 2.7999H12.1416L11.2733 1.06325C11.07 0.656705 10.6545 0.399902 10.2 0.399902H7.79998ZM5.39998 7.5999C5.39998 6.93716 5.93723 6.3999 6.59998 6.3999C7.26272 6.3999 7.79998 6.93716 7.79998 7.5999V14.7999C7.79998 15.4626 7.26272 15.9999 6.59998 15.9999C5.93723 15.9999 5.39998 15.4626 5.39998 14.7999V7.5999ZM11.4 6.3999C10.7372 6.3999 10.2 6.93716 10.2 7.5999V14.7999C10.2 15.4626 10.7372 15.9999 11.4 15.9999C12.0627 15.9999 12.6 15.4626 12.6 14.7999V7.5999C12.6 6.93716 12.0627 6.3999 11.4 6.3999Z" fill="#E00807"/>
</svg>
